HIERARCHY
ROOT Hips
{
	OFFSET -318.825958 89.265533 575.233643
	CHANNELS 6 Xposition Yposition Zposition Zrotation Yrotation Xrotation 
	JOINT Spine
	{
		OFFSET -0.000000 8.814246 -2.080107
		CHANNELS 3 Zrotation Yrotation Xrotation
		JOINT Spine1
		{
			OFFSET 0.000000 8.844141 0.000000
			CHANNELS 3 Zrotation Yrotation Xrotation
			JOINT Spine2
			{
				OFFSET -0.000000 11.682268 0.000000
				CHANNELS 3 Zrotation Yrotation Xrotation
				JOINT Spine3
				{
					OFFSET 0.000000 11.746700 0.000000
					CHANNELS 3 Zrotation Yrotation Xrotation
					JOINT Neck
					{
						OFFSET -0.000000 17.658264 -0.000000
						CHANNELS 3 Zrotation Yrotation Xrotation
						JOINT Neck1
						{
							OFFSET -0.000000 5.101515 -0.000000
							CHANNELS 3 Zrotation Yrotation Xrotation
							JOINT Head
							{
								OFFSET 0.000000 5.101515 0.000000
								CHANNELS 3 Zrotation Yrotation Xrotation
								JOINT HeadEnd
								{
									OFFSET 0.000000 11.655085 0.000000
									CHANNELS 3 Zrotation Yrotation Xrotation
									End Site
									{
										OFFSET 0.000000 0.000000 0.000000
									}
								}
							}
						}
					}
					JOINT RightShoulder
					{
						OFFSET -2.625389 11.175210 0.000000
						CHANNELS 3 Zrotation Yrotation Xrotation
						JOINT RightArm
						{
							OFFSET -0.000000 10.434715 -0.000000
							CHANNELS 3 Zrotation Yrotation Xrotation
							JOINT RightForeArm
							{
								OFFSET -0.000000 29.628420 0.000000
								CHANNELS 3 Zrotation Yrotation Xrotation
								JOINT RightHand
								{
									OFFSET -0.000000 22.857611 0.000000
									CHANNELS 3 Zrotation Yrotation Xrotation
									JOINT RightHandThumb1
									{
										OFFSET -2.867323 3.959563 2.944291
										CHANNELS 3 Zrotation Yrotation Xrotation
										JOINT RightHandThumb2
										{
											OFFSET 0.000000 3.350399 0.000000
											CHANNELS 3 Zrotation Yrotation Xrotation
											JOINT RightHandThumb3
											{
												OFFSET 0.000000 3.756509 -0.000000
												CHANNELS 3 Zrotation Yrotation Xrotation
												JOINT RightHandThumb4
												{
													OFFSET 0.000000 3.147345 0.000000
													CHANNELS 3 Zrotation Yrotation Xrotation
													End Site
													{
														OFFSET 0.000000 0.000000 0.000000
													}
												}
											}
										}
									}
									JOINT RightHandIndex1
									{
										OFFSET -0.086752 10.030893 2.345280
										CHANNELS 3 Zrotation Yrotation Xrotation
										JOINT RightHandIndex2
										{
											OFFSET -0.000000 4.061090 0.000000
											CHANNELS 3 Zrotation Yrotation Xrotation
											JOINT RightHandIndex3
											{
												OFFSET -0.000000 3.248873 0.000000
												CHANNELS 3 Zrotation Yrotation Xrotation
												JOINT RightHandIndex4
												{
													OFFSET 0.000000 2.639709 -0.000000
													CHANNELS 3 Zrotation Yrotation Xrotation
													End Site
													{
														OFFSET 0.000000 0.000000 0.000000
													}
												}
											}
										}
									}
									JOINT RightHandMiddle1
									{
										OFFSET 0.104102 9.502952 0.006768
										CHANNELS 3 Zrotation Yrotation Xrotation
										JOINT RightHandMiddle2
										{
											OFFSET 0.000000 4.568727 0.000000
											CHANNELS 3 Zrotation Yrotation Xrotation
											JOINT RightHandMiddle3
											{
												OFFSET 0.000000 3.654981 -0.000000
												CHANNELS 3 Zrotation Yrotation Xrotation
												JOINT RightHandMiddle4
												{
													OFFSET -0.000000 2.741236 -0.000000
													CHANNELS 3 Zrotation Yrotation Xrotation
													End Site
													{
														OFFSET 0.000000 0.000000 0.000000
													}
												}
											}
										}
									}
									JOINT RightHandRing1
									{
										OFFSET 0.086752 8.921708 -2.267442
										CHANNELS 3 Zrotation Yrotation Xrotation
										JOINT RightHandRing2
										{
											OFFSET -0.000000 4.061090 0.000000
											CHANNELS 3 Zrotation Yrotation Xrotation
											JOINT RightHandRing3
											{
												OFFSET 0.000000 3.654981 -0.000000
												CHANNELS 3 Zrotation Yrotation Xrotation
												JOINT RightHandRing4
												{
													OFFSET 0.000000 2.741236 -0.000000
													CHANNELS 3 Zrotation Yrotation Xrotation
													End Site
													{
														OFFSET 0.000000 0.000000 0.000000
													}
												}
											}
										}
									}
									JOINT RightHandPinky1
									{
										OFFSET -0.173504 7.976997 -4.467199
										CHANNELS 3 Zrotation Yrotation Xrotation
										JOINT RightHandPinky2
										{
											OFFSET 0.000000 3.350399 -0.000000
											CHANNELS 3 Zrotation Yrotation Xrotation
											JOINT RightHandPinky3
											{
												OFFSET -0.000000 2.842763 0.000000
												CHANNELS 3 Zrotation Yrotation Xrotation
												JOINT RightHandPinky4
												{
													OFFSET -0.000000 2.639709 0.000000
													CHANNELS 3 Zrotation Yrotation Xrotation
													End Site
													{
														OFFSET 0.000000 0.000000 0.000000
													}
												}
											}
										}
									}
									JOINT RightForeArmEnd
									{
										OFFSET 0.000000 0.000000 0.000000
										CHANNELS 3 Zrotation Yrotation Xrotation
										End Site
										{
											OFFSET 0.000000 0.000000 0.000000
										}
									}
								}
								JOINT RightArmEnd
								{
									OFFSET 0.000000 0.000000 0.000000
									CHANNELS 3 Zrotation Yrotation Xrotation
									End Site
									{
										OFFSET 0.000000 0.000000 0.000000
									}
								}
							}
						}
					}
					JOINT LeftShoulder
					{
						OFFSET 2.625389 11.175210 0.000000
						CHANNELS 3 Zrotation Yrotation Xrotation
						JOINT LeftArm
						{
							OFFSET 0.000000 10.813635 -0.000000
							CHANNELS 3 Zrotation Yrotation Xrotation
							JOINT LeftForeArm
							{
								OFFSET 0.000000 28.724781 0.000000
								CHANNELS 3 Zrotation Yrotation Xrotation
								JOINT LeftHand
								{
									OFFSET 0.644384 25.716167 -0.328871
									CHANNELS 3 Zrotation Yrotation Xrotation
									JOINT LeftHandThumb1
									{
										OFFSET 2.867323 3.959563 2.944291
										CHANNELS 3 Zrotation Yrotation Xrotation
										JOINT LeftHandThumb2
										{
											OFFSET 0.000000 3.350399 0.000000
											CHANNELS 3 Zrotation Yrotation Xrotation
											JOINT LeftHandThumb3
											{
												OFFSET -0.000000 3.756509 0.000000
												CHANNELS 3 Zrotation Yrotation Xrotation
												JOINT LeftHandThumb4
												{
													OFFSET -0.000000 3.100000 0.000000
													CHANNELS 3 Zrotation Yrotation Xrotation
													End Site
													{
														OFFSET 0.000000 0.000000 0.000000
													}
												}
											}
										}
									}
									JOINT LeftHandIndex1
									{
										OFFSET 0.086752 10.030893 2.345280
										CHANNELS 3 Zrotation Yrotation Xrotation
										JOINT LeftHandIndex2
										{
											OFFSET -0.000000 4.061090 -0.000000
											CHANNELS 3 Zrotation Yrotation Xrotation
											JOINT LeftHandIndex3
											{
												OFFSET 0.000000 3.248873 -0.000000
												CHANNELS 3 Zrotation Yrotation Xrotation
												JOINT LeftHandIndex4
												{
													OFFSET 0.000000 2.639709 -0.000000
													CHANNELS 3 Zrotation Yrotation Xrotation
													End Site
													{
														OFFSET 0.000000 0.000000 0.000000
													}
												}
											}
										}
									}
									JOINT LeftHandMiddle1
									{
										OFFSET -0.104102 9.502952 0.006768
										CHANNELS 3 Zrotation Yrotation Xrotation
										JOINT LeftHandMiddle2
										{
											OFFSET -0.000000 4.568727 -0.000000
											CHANNELS 3 Zrotation Yrotation Xrotation
											JOINT LeftHandMiddle3
											{
												OFFSET 0.000000 3.654981 0.000000
												CHANNELS 3 Zrotation Yrotation Xrotation
												JOINT LeftHandMiddle4
												{
													OFFSET 0.000000 2.741236 -0.000000
													CHANNELS 3 Zrotation Yrotation Xrotation
													End Site
													{
														OFFSET 0.000000 0.000000 0.000000
													}
												}
											}
										}
									}
									JOINT LeftHandRing1
									{
										OFFSET -0.086752 8.921708 -2.267442
										CHANNELS 3 Zrotation Yrotation Xrotation
										JOINT LeftHandRing2
										{
											OFFSET 0.000000 4.061090 0.000000
											CHANNELS 3 Zrotation Yrotation Xrotation
											JOINT LeftHandRing3
											{
												OFFSET 0.000000 3.654981 0.000000
												CHANNELS 3 Zrotation Yrotation Xrotation
												JOINT LeftHandRing4
												{
													OFFSET 0.000000 2.741236 0.000000
													CHANNELS 3 Zrotation Yrotation Xrotation
													End Site
													{
														OFFSET 0.000000 0.000000 0.000000
													}
												}
											}
										}
									}
									JOINT LeftHandPinky1
									{
										OFFSET 0.173504 7.976997 -4.467199
										CHANNELS 3 Zrotation Yrotation Xrotation
										JOINT LeftHandPinky2
										{
											OFFSET -0.000000 3.350399 -0.000000
											CHANNELS 3 Zrotation Yrotation Xrotation
											JOINT LeftHandPinky3
											{
												OFFSET 0.000000 2.842763 0.000000
												CHANNELS 3 Zrotation Yrotation Xrotation
												JOINT LeftHandPinky4
												{
													OFFSET -0.000000 2.639709 -0.000000
													CHANNELS 3 Zrotation Yrotation Xrotation
													End Site
													{
														OFFSET 0.000000 0.000000 0.000000
													}
												}
											}
										}
									}
									JOINT LeftForeArmEnd
									{
										OFFSET 0.000000 0.000000 0.000000
										CHANNELS 3 Zrotation Yrotation Xrotation
										End Site
										{
											OFFSET 0.000000 0.000000 0.000000
										}
									}
								}
								JOINT LeftArmEnd
								{
									OFFSET 0.000000 0.000000 0.000000
									CHANNELS 3 Zrotation Yrotation Xrotation
									End Site
									{
										OFFSET 0.000000 0.000000 0.000000
									}
								}
							}
						}
					}
				}
			}
		}
	}
	JOINT RightUpLeg
	{
		OFFSET -11.289943 0.000000 0.000000
		CHANNELS 3 Zrotation Yrotation Xrotation
		JOINT RightLeg
		{
			OFFSET 0.000000 -38.200325 0.000000
			CHANNELS 3 Zrotation Yrotation Xrotation
			JOINT RightFoot
			{
				OFFSET -0.000000 -39.900856 -0.000000
				CHANNELS 3 Zrotation Yrotation Xrotation
				JOINT RightToeBase
				{
					OFFSET 0.000000 0.000000 15.261641
					CHANNELS 3 Zrotation Yrotation Xrotation
					JOINT RightToeBaseEnd
					{
						OFFSET 0.000000 0.000000 7.370709
						CHANNELS 3 Zrotation Yrotation Xrotation
						End Site
						{
							OFFSET 0.000000 0.000000 0.000000
						}
					}
				}
				JOINT RightLegEnd
				{
					OFFSET 0.000000 0.000000 0.000000
					CHANNELS 3 Zrotation Yrotation Xrotation
					End Site
					{
						OFFSET 0.000000 0.000000 0.000000
					}
				}
			}
			JOINT RightUpLegEnd
			{
				OFFSET 0.000000 0.000000 0.000000
				CHANNELS 3 Zrotation Yrotation Xrotation
				End Site
				{
					OFFSET 0.000000 0.000000 0.000000
				}
			}
		}
	}
	JOINT LeftUpLeg
	{
		OFFSET 11.315661 -0.000000 0.000000
		CHANNELS 3 Zrotation Yrotation Xrotation
		JOINT LeftLeg
		{
			OFFSET -0.000000 -38.200325 -0.000000
			CHANNELS 3 Zrotation Yrotation Xrotation
			JOINT LeftFoot
			{
				OFFSET 0.000000 -39.900856 -0.000000
				CHANNELS 3 Zrotation Yrotation Xrotation
				JOINT LeftToeBase
				{
					OFFSET -0.000000 -0.000000 15.261641
					CHANNELS 3 Zrotation Yrotation Xrotation
					JOINT LeftToeBaseEnd
					{
						OFFSET 0.000000 -0.000000 7.539996
						CHANNELS 3 Zrotation Yrotation Xrotation
						End Site
						{
							OFFSET 0.000000 0.000000 0.000000
						}
					}
				}
				JOINT LeftLegEnd
				{
					OFFSET 0.000000 0.000000 0.000000
					CHANNELS 3 Zrotation Yrotation Xrotation
					End Site
					{
						OFFSET 0.000000 0.000000 0.000000
					}
				}
			}
			JOINT LeftUpLegEnd
			{
				OFFSET 0.000000 0.000000 0.000000
				CHANNELS 3 Zrotation Yrotation Xrotation
				End Site
				{
					OFFSET 0.000000 0.000000 0.000000
				}
			}
		}
	}
}
MOTION
Frames: 4
Frame Time: 0.016667
0.026733 88.575829 -0.809336 0.525907 0.646225 -12.725780 0.548455 0.289606 8.011306 -0.235347 0.191616 2.291613 -0.797806 0.627751 7.191307 -0.901250 0.512260 3.915400 3.078938 -2.373881 3.150452 0.391876 -1.582864 -3.841250 1.000228 -0.671116 -18.029408 0.000000 -0.000000 0.000000 94.406113 -0.922591 12.028618 61.420300 -37.030876 7.407876 0.063190 12.828389 26.136427 9.495575 16.076218 -2.786880 20.055330 30.046919 61.865547 -8.636657 -12.540206 -21.000935 -6.472434 -8.387212 -14.722588 0.000000 -0.000000 -0.000000 13.785151 -10.923968 0.742462 9.773805 0.386570 1.451950 9.773612 -0.106675 1.367068 -0.000000 0.000000 0.000000 12.776405 -5.730947 -0.200214 9.055911 0.458444 0.547323 9.055607 -0.035953 0.464922 -0.000000 -0.000000 0.000000 13.801766 2.092137 0.065259 9.783640 -0.938745 -0.765344 9.782371 0.050374 -0.584016 0.000000 -0.000000 0.000000 13.804085 10.537967 -1.292920 9.831427 -1.807203 -2.242543 9.826545 0.150335 -1.901083 0.000000 -0.000000 -0.000000 -0.000000 -0.000000 0.000000 0.000000 -0.000000 0.000000 -88.893051 -0.127564 6.214934 -67.443916 28.280729 2.380543 -0.346819 -5.467527 42.500103 -1.371552 -23.096066 -11.078735 -19.861212 -30.097528 62.040653 8.462832 12.163657 -20.448151 6.325715 8.139983 -14.334116 0.000000 -0.000000 -0.000000 -12.703238 -6.252529 -1.010383 -9.041571 0.391036 -1.344087 -9.041355 -0.102371 -1.265512 0.000000 0.000000 -0.000000 -11.842151 -1.416839 -0.977638 -8.444672 0.452734 -0.515185 -8.444423 -0.044635 -0.441639 0.000000 0.000000 -0.000000 -13.023537 6.767119 -0.601951 -9.202580 -0.939858 0.720289 -9.201331 0.055063 0.560373 0.000000 -0.000000 -0.000000 -13.029215 15.271114 -0.137181 -9.068036 -1.835946 2.069809 -9.063138 0.139088 1.754666 -0.000000 0.000000 -0.000000 0.000000 0.000000 -0.000000 0.000000 0.000000 0.000000 -2.327331 -11.074458 16.937510 -0.031541 -0.593523 5.603942 -2.175349 -7.950242 16.747713 -0.988538 0.746609 -18.361807 -0.000000 -0.000000 0.000000 -0.000000 0.000000 -0.000000 0.000000 0.000000 0.000000 -2.019797 -5.036827 11.332841 0.084281 0.391057 10.985374 4.069422 -3.582730 16.126848 0.081084 -0.457051 -20.440870 -0.000000 0.000000 0.000000 0.000000 -0.000000 -0.000000 0.000000 0.000000 0.000000 
0.040492 88.570724 -0.795920 0.524098 0.613454 -12.750006 0.572373 0.290607 8.042862 -0.208023 0.180154 2.254724 -0.796681 0.568840 7.176878 -0.945159 0.482504 3.868450 2.801744 -2.303236 2.990077 0.356301 -1.601438 -3.895521 0.931828 -0.693574 -17.943720 0.000000 0.000000 0.000000 94.405617 -0.922453 12.029033 61.210228 -37.223461 7.358591 0.062635 12.333535 27.004971 9.437729 16.138977 -2.746323 20.055286 30.046963 61.865578 -8.636658 -12.540217 -21.000952 -6.472361 -8.387226 -14.722604 0.000000 -0.000000 -0.000000 13.664765 -10.896827 0.466253 9.660382 0.384310 1.435268 9.660450 -0.108809 1.351379 -0.000000 -0.000000 -0.000000 12.580863 -5.694908 -0.426370 8.907500 0.457461 0.540443 8.907244 -0.036703 0.461414 -0.000000 0.000000 0.000000 13.453228 2.149376 -0.111891 9.546643 -0.938331 -0.746972 9.545364 0.051024 -0.581146 0.000000 -0.000000 0.000000 13.337295 10.615183 -1.350304 9.515684 -1.819375 -2.171142 9.510911 0.152664 -1.840569 0.000000 -0.000000 -0.000000 -0.000000 -0.000000 -0.000000 -0.000000 0.000000 0.000000 -88.823181 -0.136920 6.296153 -67.586380 28.517546 2.411847 -0.307542 -5.732483 42.971561 -1.114014 -22.915722 -10.838409 -19.861204 -30.097530 62.040646 8.462842 12.163660 -20.448122 6.325702 8.139991 -14.334141 0.000000 -0.000000 -0.000000 -12.833507 -6.229036 -1.050925 -9.137196 0.388108 -1.358208 -9.137249 -0.105551 -1.278804 -0.000000 0.000000 -0.000000 -12.030409 -1.384622 -0.959617 -8.577363 0.451318 -0.522408 -8.577080 -0.045427 -0.447840 -0.000000 0.000000 -0.000000 -13.344224 6.822504 -0.573252 -9.431339 -0.938166 0.738032 -9.430057 0.055500 0.574179 0.000000 -0.000000 -0.000000 -13.464463 15.345751 -0.135996 -9.371239 -1.824803 2.138463 -9.366497 0.148527 1.812870 -0.000000 -0.000000 -0.000000 0.000000 0.000000 -0.000000 -0.000000 -0.000000 -0.000000 -2.335593 -11.042914 16.967424 -0.031599 -0.594623 5.607504 -2.156507 -7.946478 16.722717 -0.996325 0.746667 -18.339788 -0.000000 0.000000 0.000000 -0.000000 -0.000000 -0.000000 0.000000 -0.000000 0.000000 -2.031190 -5.020845 11.371686 0.084248 0.387786 10.985915 4.084073 -3.555152 16.097979 0.074587 -0.459746 -20.425919 -0.000000 0.000000 0.000000 0.000000 -0.000000 0.000000 0.000000 -0.000000 0.000000 
0.054413 88.568192 -0.801213 0.522062 0.566226 -12.774735 0.590184 0.288448 8.055495 -0.184073 0.168417 2.238524 -0.776226 0.519320 7.184639 -0.965638 0.460117 3.855051 2.452107 -2.205940 2.835768 0.316308 -1.608570 -3.959791 0.866997 -0.715944 -17.904930 0.000000 0.000000 0.000000 94.388588 -0.918879 12.030107 60.747143 -37.565231 7.375938 0.071144 12.066269 28.105223 9.390594 15.892151 -2.898346 20.055273 30.046972 61.865585 -8.636662 -12.540223 -21.000944 -6.472339 -8.387226 -14.722612 0.000000 -0.000000 -0.000000 13.549452 -10.877296 0.474211 9.580330 0.381714 1.423478 9.580134 -0.111259 1.340261 -0.000000 -0.000000 -0.000000 12.491513 -5.679328 -0.450363 8.843477 0.456290 0.538476 8.843043 -0.037629 0.461650 -0.000000 0.000000 0.000000 13.422697 2.154252 -0.134916 9.526553 -0.937537 -0.745408 9.525308 0.051880 -0.579903 0.000000 -0.000000 0.000000 13.380836 10.609535 -1.308946 9.539542 -1.817367 -2.176534 9.534737 0.155395 -1.845142 0.000000 -0.000000 -0.000000 -0.000000 -0.000000 0.000000 -0.000000 -0.000000 -0.000000 -88.734909 -0.148247 6.363498 -67.528564 28.848875 2.489598 -0.292763 -6.217892 43.576363 -1.549133 -22.893332 -10.304352 -19.861200 -30.097536 62.040642 8.462856 12.163674 -20.448095 6.325690 8.139994 -14.334163 0.000000 -0.000000 -0.000000 -13.286486 -6.162992 -0.628985 -9.411818 0.385329 -1.398627 -9.411430 -0.108275 -1.316862 0.000000 -0.000000 -0.000000 -12.453596 -1.315145 -0.666392 -8.864782 0.449942 -0.539767 -8.864153 -0.046085 -0.462717 -0.000000 -0.000000 -0.000000 -13.780488 6.897889 -0.523549 -9.743142 -0.936518 0.762193 -9.741762 0.055994 0.592968 0.000000 -0.000000 -0.000000 -13.969201 15.422698 -0.374157 -9.685463 -1.812875 2.209516 -9.680456 0.158623 1.873104 -0.000000 -0.000000 -0.000000 0.000000 0.000000 -0.000000 0.000000 -0.000000 -0.000000 -2.338081 -11.005176 16.980934 -0.031658 -0.595472 5.611560 -2.141881 -7.933317 16.714142 -1.004229 0.745768 -18.320478 -0.000000 -0.000000 0.000000 -0.000000 0.000000 -0.000000 0.000000 0.000000 0.000000 -2.036927 -4.997673 11.404934 0.084215 0.385296 10.976159 4.096005 -3.523058 16.088163 0.070029 -0.461837 -20.413300 -0.000000 0.000000 -0.000000 0.000000 0.000000 -0.000000 0.000000 -0.000000 0.000000 
0.063239 88.567032 -0.804139 0.519641 0.500074 -12.806381 0.606330 0.273285 8.059054 -0.170434 0.168480 2.223603 -0.746984 0.487105 7.196529 -0.965923 0.454999 3.859335 2.069913 -2.088260 2.700960 0.283137 -1.583170 -4.026661 0.809045 -0.749271 -17.899876 0.000000 -0.000000 0.000000 94.361397 -0.913311 12.032739 60.091488 -38.079086 7.393088 0.089405 12.181876 29.474060 9.463013 15.718124 -3.119644 20.055321 30.046930 61.865555 -8.636668 -12.540218 -21.000902 -6.472395 -8.387203 -14.722609 -0.000000 -0.000000 0.000000 13.769474 -10.918439 0.626808 9.748645 0.376454 1.448481 9.750986 -0.116224 1.363551 0.000000 -0.000000 -0.000000 12.744861 -5.724449 -0.301044 9.029174 0.454921 0.549706 9.028906 -0.038745 0.471233 -0.000000 0.000000 0.000000 13.723212 2.102589 -0.155880 9.740282 -0.935084 -0.761986 9.739036 0.052960 -0.592809 0.000000 -0.000000 0.000000 13.640495 10.553097 -1.582943 9.763265 -1.809867 -2.227121 9.758473 0.161184 -1.888026 0.000000 -0.000000 -0.000000 -0.000000 -0.000000 0.000000 -0.000000 0.000000 -0.000000 -88.693748 -0.154125 6.414866 -67.249763 29.127337 2.521269 -0.286838 -6.905412 44.374580 -3.109436 -22.720776 -9.466888 -19.861198 -30.097542 62.040638 8.462872 12.163691 -20.448076 6.325681 8.139995 -14.334175 0.000000 -0.000000 -0.000000 -13.494457 -6.141923 -0.074717 -9.500297 0.382538 -1.411683 -9.499910 -0.110298 -1.329153 -0.000000 0.000000 -0.000000 -12.574498 -1.298978 -0.248210 -8.932204 0.448675 -0.543855 -8.931939 -0.046582 -0.466595 -0.000000 -0.000000 -0.000000 -13.742729 6.894025 -0.337811 -9.726687 -0.934938 0.763168 -9.725384 0.056561 0.593592 0.000000 -0.000000 -0.000000 -13.858281 15.399002 -0.491826 -9.589605 -1.809887 2.187865 -9.584929 0.162259 1.854744 0.000000 -0.000000 -0.000000 0.000000 -0.000000 -0.000000 -0.000000 0.000000 0.000000 -2.335880 -10.956882 16.999079 -0.031717 -0.596090 5.615285 -2.132383 -7.912740 16.713215 -1.010643 0.744709 -18.309917 -0.000000 -0.000000 0.000000 -0.000000 0.000000 -0.000000 0.000000 0.000000 0.000000 -2.036892 -4.960761 11.449397 0.084182 0.383562 10.967422 4.104699 -3.488771 16.078857 0.065410 -0.464059 -20.406178 -0.000000 0.000000 -0.000000 0.000000 0.000000 -0.000000 0.000000 -0.000000 0.000000 
